<svg xmlns="http://www.w3.org/2000/svg" viewBox="0 0 800 500" role="img" aria-label="Interface abstrata com fluxos">
  <defs>
    <linearGradient id="bg" x1="0" y1="0" x2="1" y2="1">
      <stop offset="0%" stop-color="#f8f9f4" />
      <stop offset="100%" stop-color="#eef0ea" />
    </linearGradient>
    <linearGradient id="accent" x1="0" y1="0" x2="1" y2="0">
      <stop offset="0%" stop-color="#bfe9d7" />
      <stop offset="100%" stop-color="#c8e7ff" />
    </linearGradient>
  </defs>
  <rect width="800" height="500" fill="url(#bg)" />
  <circle cx="660" cy="110" r="150" fill="#f1f3ed" />
  <rect x="70" y="80" width="430" height="270" rx="24" fill="#ffffff" stroke="#e0e3db" />
  <rect x="100" y="120" width="260" height="14" rx="7" fill="#e9ece4" />
  <rect x="100" y="150" width="180" height="14" rx="7" fill="#e9ece4" />
  <rect x="100" y="190" width="240" height="68" rx="16" fill="#f6f7f4" stroke="#e4e7df" />
  <rect x="360" y="190" width="110" height="68" rx="16" fill="#f6f7f4" stroke="#e4e7df" />
  <rect x="100" y="275" width="300" height="10" rx="5" fill="#e9ece4" />
  <rect x="100" y="295" width="220" height="10" rx="5" fill="#e9ece4" />
  <path d="M530 220h150" stroke="#d9ddd6" stroke-width="2" stroke-linecap="round" />
  <path d="M530 250h120" stroke="#d9ddd6" stroke-width="2" stroke-linecap="round" />
  <circle cx="530" cy="290" r="6" fill="url(#accent)" />
  <circle cx="560" cy="290" r="6" fill="#d5d9d2" />
  <circle cx="590" cy="290" r="6" fill="#d5d9d2" />
</svg>
